/* XPM */
static char * text_xpm[] = {
"17 17 3 1",
" 	c None",
"*	c #000000000000",
".	c #FFFFFFFF0000",
"      *****      ",
"    **.....**    ",
"   *.........*   ",
"  *...........*  ",
" *...*.........* ",
" *..***...***..* ",
"*....*..........*",
"*...............*",
"*...............*",
"*...............*",
"*...*.......*...*",
" *...**...**...* ",
" *.....***.....* ",
"  *...........*  ",
"   *.........*   ",
"    **.....**    ",
"      *****      "};
